<mxfile host="drawio-plugin" modified="2021-12-12T10:45:15.859Z" agent="5.0 (Windows NT 6.2; Win64; x64) AppleWebKit/537.36 (KHTML, like Gecko) Chrome/89.0.4389.114 Safari/537.36" etag="wRer7dQj-JJ0MTjC5lLT" version="14.7.4" type="embed"><diagram id="kYYNlZnF5yqJCKvCNqnD" name="Page-1"><mxGraphModel dx="633" dy="494" grid="1" gridSize="10" guides="1" tooltips="1" connect="1" arrows="1" fold="1" page="1" pageScale="1" pageWidth="850" pageHeight="1100" math="0" shadow="0"><root><mxCell id="0"/><mxCell id="1" parent="0"/><mxCell id="GsUnz339vTUaddn1H5S7-6" value="" style="edgeStyle=orthogonalEdgeStyle;rounded=0;orthogonalLoop=1;jettySize=auto;html=1;fontColor=#000000;" parent="1" source="GsUnz339vTUaddn1H5S7-4" target="GsUnz339vTUaddn1H5S7-5" edge="1"><mxGeometry relative="1" as="geometry"/></mxCell><mxCell id="GsUnz339vTUaddn1H5S7-4" value="page loads" style="rounded=1;whiteSpace=wrap;html=1;fillColor=#dae8fc;strokeColor=#6c8ebf;fontColor=#000000;" parent="1" vertex="1"><mxGeometry x="80" y="80" width="120" height="60" as="geometry"/></mxCell><mxCell id="GsUnz339vTUaddn1H5S7-8" value="" style="edgeStyle=orthogonalEdgeStyle;rounded=0;orthogonalLoop=1;jettySize=auto;html=1;fontColor=#000000;" parent="1" source="GsUnz339vTUaddn1H5S7-5" target="GsUnz339vTUaddn1H5S7-7" edge="1"><mxGeometry relative="1" as="geometry"/></mxCell><mxCell id="GsUnz339vTUaddn1H5S7-5" value="load login view" style="whiteSpace=wrap;html=1;rounded=1;strokeColor=#82b366;fillColor=#d5e8d4;fontColor=#000000;" parent="1" vertex="1"><mxGeometry x="280" y="80" width="120" height="60" as="geometry"/></mxCell><mxCell id="GsUnz339vTUaddn1H5S7-10" value="" style="edgeStyle=orthogonalEdgeStyle;rounded=0;orthogonalLoop=1;jettySize=auto;html=1;fontColor=#000000;" parent="1" source="GsUnz339vTUaddn1H5S7-7" target="GsUnz339vTUaddn1H5S7-9" edge="1"><mxGeometry relative="1" as="geometry"/></mxCell><mxCell id="GsUnz339vTUaddn1H5S7-7" value="login submit" style="whiteSpace=wrap;html=1;rounded=1;strokeColor=#6c8ebf;fillColor=#dae8fc;fontColor=#000000;" parent="1" vertex="1"><mxGeometry x="280" y="180" width="120" height="60" as="geometry"/></mxCell><mxCell id="GsUnz339vTUaddn1H5S7-11" style="edgeStyle=orthogonalEdgeStyle;rounded=0;orthogonalLoop=1;jettySize=auto;html=1;entryX=0.5;entryY=1;entryDx=0;entryDy=0;startArrow=none;fontColor=#000000;" parent="1" source="GsUnz339vTUaddn1H5S7-13" target="GsUnz339vTUaddn1H5S7-12" edge="1"><mxGeometry relative="1" as="geometry"><mxPoint x="470" y="160" as="targetPoint"/><Array as="points"><mxPoint x="470" y="140"/></Array></mxGeometry></mxCell><mxCell id="GsUnz339vTUaddn1H5S7-14" style="edgeStyle=orthogonalEdgeStyle;rounded=0;orthogonalLoop=1;jettySize=auto;html=1;entryX=0;entryY=0.75;entryDx=0;entryDy=0;fontColor=#000000;" parent="1" source="GsUnz339vTUaddn1H5S7-9" target="GsUnz339vTUaddn1H5S7-5" edge="1"><mxGeometry relative="1" as="geometry"><mxPoint x="240" y="110" as="targetPoint"/><Array as="points"><mxPoint x="240" y="300"/><mxPoint x="240" y="125"/></Array></mxGeometry></mxCell><mxCell id="GsUnz339vTUaddn1H5S7-9" value="async check user" style="whiteSpace=wrap;html=1;rounded=1;strokeColor=#9673a6;fillColor=#e1d5e7;fontColor=#000000;" parent="1" vertex="1"><mxGeometry x="280" y="270" width="120" height="60" as="geometry"/></mxCell><mxCell id="GsUnz339vTUaddn1H5S7-18" style="edgeStyle=orthogonalEdgeStyle;rounded=0;orthogonalLoop=1;jettySize=auto;html=1;fontColor=#000000;" parent="1" source="GsUnz339vTUaddn1H5S7-12" edge="1"><mxGeometry relative="1" as="geometry"><mxPoint x="550" y="150" as="targetPoint"/></mxGeometry></mxCell><mxCell id="GsUnz339vTUaddn1H5S7-26" style="edgeStyle=orthogonalEdgeStyle;rounded=0;orthogonalLoop=1;jettySize=auto;html=1;entryX=0.35;entryY=0.023;entryDx=0;entryDy=0;entryPerimeter=0;fontColor=#000000;" parent="1" source="GsUnz339vTUaddn1H5S7-12" target="GsUnz339vTUaddn1H5S7-27" edge="1"><mxGeometry relative="1" as="geometry"><mxPoint x="680" y="110" as="targetPoint"/></mxGeometry></mxCell><mxCell id="GsUnz339vTUaddn1H5S7-37" style="edgeStyle=orthogonalEdgeStyle;rounded=0;orthogonalLoop=1;jettySize=auto;html=1;exitX=1;exitY=0.5;exitDx=0;exitDy=0;entryX=0.5;entryY=0;entryDx=0;entryDy=0;fontColor=#000000;" parent="1" source="GsUnz339vTUaddn1H5S7-12" target="GsUnz339vTUaddn1H5S7-39" edge="1"><mxGeometry relative="1" as="geometry"><mxPoint x="880" y="100" as="targetPoint"/></mxGeometry></mxCell><mxCell id="GsUnz339vTUaddn1H5S7-46" style="edgeStyle=orthogonalEdgeStyle;rounded=0;orthogonalLoop=1;jettySize=auto;html=1;fontColor=#000000;" parent="1" source="GsUnz339vTUaddn1H5S7-12" target="GsUnz339vTUaddn1H5S7-47" edge="1"><mxGeometry relative="1" as="geometry"><mxPoint x="1180" y="180" as="targetPoint"/><Array as="points"><mxPoint x="1180" y="110"/></Array></mxGeometry></mxCell><mxCell id="GsUnz339vTUaddn1H5S7-12" value="show all students" style="rounded=1;whiteSpace=wrap;html=1;fillColor=#d5e8d4;strokeColor=#82b366;fontColor=#000000;" parent="1" vertex="1"><mxGeometry x="410" y="80" width="120" height="60" as="geometry"/></mxCell><mxCell id="GsUnz339vTUaddn1H5S7-15" value="wrong" style="text;html=1;align=center;verticalAlign=middle;whiteSpace=wrap;rounded=0;fillColor=#f5f5f5;strokeColor=#666666;fontColor=#000000;" parent="1" vertex="1"><mxGeometry x="210" y="250" width="60" height="30" as="geometry"/></mxCell><mxCell id="GsUnz339vTUaddn1H5S7-13" value="correct" style="text;html=1;strokeColor=#666666;fillColor=#f5f5f5;align=center;verticalAlign=middle;whiteSpace=wrap;rounded=0;fontColor=#000000;" parent="1" vertex="1"><mxGeometry x="440" y="250" width="60" height="30" as="geometry"/></mxCell><mxCell id="GsUnz339vTUaddn1H5S7-16" value="" style="edgeStyle=orthogonalEdgeStyle;rounded=0;orthogonalLoop=1;jettySize=auto;html=1;entryX=0.5;entryY=1;entryDx=0;entryDy=0;endArrow=none;fontColor=#000000;" parent="1" source="GsUnz339vTUaddn1H5S7-9" target="GsUnz339vTUaddn1H5S7-13" edge="1"><mxGeometry relative="1" as="geometry"><mxPoint x="470" y="140" as="targetPoint"/><mxPoint x="400" y="300" as="sourcePoint"/><Array as="points"><mxPoint x="470" y="300"/></Array></mxGeometry></mxCell><mxCell id="GsUnz339vTUaddn1H5S7-20" value="" style="edgeStyle=orthogonalEdgeStyle;rounded=0;orthogonalLoop=1;jettySize=auto;html=1;fontColor=#000000;" parent="1" source="GsUnz339vTUaddn1H5S7-17" target="GsUnz339vTUaddn1H5S7-19" edge="1"><mxGeometry relative="1" as="geometry"/></mxCell><mxCell id="GsUnz339vTUaddn1H5S7-17" value="new student btn" style="rounded=1;whiteSpace=wrap;html=1;fillColor=#dae8fc;strokeColor=#6c8ebf;fontColor=#000000;" parent="1" vertex="1"><mxGeometry x="495" y="150" width="120" height="60" as="geometry"/></mxCell><mxCell id="GsUnz339vTUaddn1H5S7-22" value="" style="edgeStyle=orthogonalEdgeStyle;rounded=0;orthogonalLoop=1;jettySize=auto;html=1;fontColor=#000000;" parent="1" source="GsUnz339vTUaddn1H5S7-19" target="GsUnz339vTUaddn1H5S7-21" edge="1"><mxGeometry relative="1" as="geometry"/></mxCell><mxCell id="GsUnz339vTUaddn1H5S7-19" value="show new student view" style="whiteSpace=wrap;html=1;rounded=1;strokeColor=#82b366;fillColor=#d5e8d4;fontColor=#000000;" parent="1" vertex="1"><mxGeometry x="490" y="290" width="130" height="60" as="geometry"/></mxCell><mxCell id="GsUnz339vTUaddn1H5S7-24" value="" style="edgeStyle=orthogonalEdgeStyle;rounded=0;orthogonalLoop=1;jettySize=auto;html=1;fontColor=#000000;" parent="1" source="GsUnz339vTUaddn1H5S7-21" target="GsUnz339vTUaddn1H5S7-23" edge="1"><mxGeometry relative="1" as="geometry"/></mxCell><mxCell id="GsUnz339vTUaddn1H5S7-21" value="new student submit" style="whiteSpace=wrap;html=1;rounded=1;strokeColor=#6c8ebf;fillColor=#dae8fc;fontColor=#000000;" parent="1" vertex="1"><mxGeometry x="495" y="380" width="120" height="60" as="geometry"/></mxCell><mxCell id="GsUnz339vTUaddn1H5S7-25" style="edgeStyle=orthogonalEdgeStyle;rounded=0;orthogonalLoop=1;jettySize=auto;html=1;entryX=0.167;entryY=1;entryDx=0;entryDy=0;entryPerimeter=0;fontColor=#000000;" parent="1" source="GsUnz339vTUaddn1H5S7-23" target="GsUnz339vTUaddn1H5S7-12" edge="1"><mxGeometry relative="1" as="geometry"><mxPoint x="430" y="145" as="targetPoint"/><Array as="points"><mxPoint x="430" y="490"/></Array></mxGeometry></mxCell><mxCell id="GsUnz339vTUaddn1H5S7-23" value="async create student" style="whiteSpace=wrap;html=1;rounded=1;strokeColor=#9673a6;fillColor=#e1d5e7;fontColor=#000000;" parent="1" vertex="1"><mxGeometry x="495" y="470" width="120" height="60" as="geometry"/></mxCell><mxCell id="GsUnz339vTUaddn1H5S7-34" style="edgeStyle=orthogonalEdgeStyle;rounded=0;orthogonalLoop=1;jettySize=auto;html=1;exitX=0.5;exitY=1;exitDx=0;exitDy=0;entryX=0.5;entryY=0;entryDx=0;entryDy=0;fontColor=#000000;" parent="1" source="GsUnz339vTUaddn1H5S7-27" target="GsUnz339vTUaddn1H5S7-28" edge="1"><mxGeometry relative="1" as="geometry"/></mxCell><mxCell id="GsUnz339vTUaddn1H5S7-27" value="edit student btn" style="rounded=1;whiteSpace=wrap;html=1;fillColor=#dae8fc;strokeColor=#6c8ebf;fontColor=#000000;" parent="1" vertex="1"><mxGeometry x="650" y="150" width="120" height="60" as="geometry"/></mxCell><mxCell id="GsUnz339vTUaddn1H5S7-31" style="edgeStyle=orthogonalEdgeStyle;rounded=0;orthogonalLoop=1;jettySize=auto;html=1;entryX=0.5;entryY=1;entryDx=0;entryDy=0;exitX=0.5;exitY=1;exitDx=0;exitDy=0;fontColor=#000000;" parent="1" source="GsUnz339vTUaddn1H5S7-27" target="GsUnz339vTUaddn1H5S7-27" edge="1"><mxGeometry relative="1" as="geometry"><mxPoint x="715" y="220" as="targetPoint"/></mxGeometry></mxCell><mxCell id="GsUnz339vTUaddn1H5S7-35" style="edgeStyle=orthogonalEdgeStyle;rounded=0;orthogonalLoop=1;jettySize=auto;html=1;entryX=0.458;entryY=0.167;entryDx=0;entryDy=0;entryPerimeter=0;fontColor=#000000;" parent="1" source="GsUnz339vTUaddn1H5S7-28" target="GsUnz339vTUaddn1H5S7-29" edge="1"><mxGeometry relative="1" as="geometry"/></mxCell><mxCell id="GsUnz339vTUaddn1H5S7-28" value="show edit std view" style="whiteSpace=wrap;html=1;rounded=1;strokeColor=#82b366;fillColor=#d5e8d4;fontColor=#000000;" parent="1" vertex="1"><mxGeometry x="645" y="290" width="130" height="60" as="geometry"/></mxCell><mxCell id="GsUnz339vTUaddn1H5S7-36" style="edgeStyle=orthogonalEdgeStyle;rounded=0;orthogonalLoop=1;jettySize=auto;html=1;fontColor=#000000;" parent="1" source="GsUnz339vTUaddn1H5S7-29" target="GsUnz339vTUaddn1H5S7-30" edge="1"><mxGeometry relative="1" as="geometry"/></mxCell><mxCell id="GsUnz339vTUaddn1H5S7-29" value="edit student submit" style="whiteSpace=wrap;html=1;rounded=1;strokeColor=#6c8ebf;fillColor=#dae8fc;fontColor=#000000;" parent="1" vertex="1"><mxGeometry x="655" y="390" width="120" height="60" as="geometry"/></mxCell><mxCell id="GsUnz339vTUaddn1H5S7-32" style="edgeStyle=orthogonalEdgeStyle;rounded=0;orthogonalLoop=1;jettySize=auto;html=1;fontColor=#000000;" parent="1" source="GsUnz339vTUaddn1H5S7-30" edge="1"><mxGeometry relative="1" as="geometry"><mxPoint x="420" y="140" as="targetPoint"/><Array as="points"><mxPoint x="715" y="550"/><mxPoint x="420" y="550"/><mxPoint x="420" y="140"/></Array></mxGeometry></mxCell><mxCell id="GsUnz339vTUaddn1H5S7-30" value="async edit student" style="whiteSpace=wrap;html=1;rounded=1;strokeColor=#9673a6;fillColor=#e1d5e7;fontColor=#000000;" parent="1" vertex="1"><mxGeometry x="655" y="470" width="120" height="60" as="geometry"/></mxCell><mxCell id="GsUnz339vTUaddn1H5S7-38" style="edgeStyle=orthogonalEdgeStyle;rounded=0;orthogonalLoop=1;jettySize=auto;html=1;fontColor=#000000;" parent="1" source="GsUnz339vTUaddn1H5S7-39" target="GsUnz339vTUaddn1H5S7-40" edge="1"><mxGeometry relative="1" as="geometry"/></mxCell><mxCell id="GsUnz339vTUaddn1H5S7-44" value="" style="edgeStyle=orthogonalEdgeStyle;rounded=0;orthogonalLoop=1;jettySize=auto;html=1;fontColor=#000000;" parent="1" source="GsUnz339vTUaddn1H5S7-39" target="GsUnz339vTUaddn1H5S7-43" edge="1"><mxGeometry relative="1" as="geometry"/></mxCell><mxCell id="GsUnz339vTUaddn1H5S7-39" value="search student btn" style="whiteSpace=wrap;html=1;rounded=1;strokeColor=#6c8ebf;fillColor=#dae8fc;fontColor=#000000;" parent="1" vertex="1"><mxGeometry x="810" y="150" width="120" height="60" as="geometry"/></mxCell><mxCell id="GsUnz339vTUaddn1H5S7-42" value="" style="edgeStyle=orthogonalEdgeStyle;rounded=0;orthogonalLoop=1;jettySize=auto;html=1;fontColor=#000000;" parent="1" source="GsUnz339vTUaddn1H5S7-40" target="GsUnz339vTUaddn1H5S7-41" edge="1"><mxGeometry relative="1" as="geometry"/></mxCell><mxCell id="GsUnz339vTUaddn1H5S7-40" value="async search student" style="whiteSpace=wrap;html=1;rounded=1;strokeColor=#9673a6;fillColor=#e1d5e7;fontColor=#000000;" parent="1" vertex="1"><mxGeometry x="810" y="230" width="120" height="60" as="geometry"/></mxCell><mxCell id="GsUnz339vTUaddn1H5S7-41" value="show searched data" style="whiteSpace=wrap;html=1;rounded=1;strokeColor=#82b366;fillColor=#d5e8d4;fontColor=#000000;" parent="1" vertex="1"><mxGeometry x="810" y="330" width="120" height="60" as="geometry"/></mxCell><mxCell id="GsUnz339vTUaddn1H5S7-45" style="edgeStyle=orthogonalEdgeStyle;rounded=0;orthogonalLoop=1;jettySize=auto;html=1;fontColor=#000000;" parent="1" source="GsUnz339vTUaddn1H5S7-43" edge="1"><mxGeometry relative="1" as="geometry"><mxPoint x="451" y="80" as="targetPoint"/><Array as="points"><mxPoint x="1010" y="60"/><mxPoint x="451" y="60"/></Array></mxGeometry></mxCell><mxCell id="GsUnz339vTUaddn1H5S7-43" value="reset btn" style="whiteSpace=wrap;html=1;rounded=1;strokeColor=#6c8ebf;fillColor=#dae8fc;fontColor=#000000;" parent="1" vertex="1"><mxGeometry x="970" y="210" width="120" height="60" as="geometry"/></mxCell><mxCell id="GsUnz339vTUaddn1H5S7-48" style="edgeStyle=orthogonalEdgeStyle;rounded=0;orthogonalLoop=1;jettySize=auto;html=1;fillColor=#e1d5e7;strokeColor=#9673a6;fontColor=#000000;" parent="1" source="GsUnz339vTUaddn1H5S7-47" edge="1"><mxGeometry relative="1" as="geometry"><mxPoint x="1180" y="260" as="targetPoint"/></mxGeometry></mxCell><mxCell id="GsUnz339vTUaddn1H5S7-50" value="" style="edgeStyle=orthogonalEdgeStyle;rounded=0;orthogonalLoop=1;jettySize=auto;html=1;fontColor=#000000;" parent="1" source="GsUnz339vTUaddn1H5S7-47" target="GsUnz339vTUaddn1H5S7-49" edge="1"><mxGeometry relative="1" as="geometry"/></mxCell><mxCell id="GsUnz339vTUaddn1H5S7-47" value="delete student btn" style="rounded=1;whiteSpace=wrap;html=1;fillColor=#dae8fc;strokeColor=#6c8ebf;fontColor=#000000;" parent="1" vertex="1"><mxGeometry x="1120" y="150" width="120" height="60" as="geometry"/></mxCell><mxCell id="GsUnz339vTUaddn1H5S7-52" value="" style="edgeStyle=orthogonalEdgeStyle;rounded=0;orthogonalLoop=1;jettySize=auto;html=1;fontColor=#000000;" parent="1" source="GsUnz339vTUaddn1H5S7-49" target="GsUnz339vTUaddn1H5S7-51" edge="1"><mxGeometry relative="1" as="geometry"/></mxCell><mxCell id="GsUnz339vTUaddn1H5S7-49" value="async temp dele std&amp;nbsp;" style="whiteSpace=wrap;html=1;rounded=1;strokeColor=#9673a6;fillColor=#e1d5e7;fontColor=#000000;" parent="1" vertex="1"><mxGeometry x="1120" y="290" width="120" height="60" as="geometry"/></mxCell><mxCell id="GsUnz339vTUaddn1H5S7-54" value="" style="edgeStyle=orthogonalEdgeStyle;rounded=0;orthogonalLoop=1;jettySize=auto;html=1;fontColor=#000000;" parent="1" source="GsUnz339vTUaddn1H5S7-51" target="GsUnz339vTUaddn1H5S7-53" edge="1"><mxGeometry relative="1" as="geometry"/></mxCell><mxCell id="GsUnz339vTUaddn1H5S7-60" style="edgeStyle=orthogonalEdgeStyle;rounded=0;orthogonalLoop=1;jettySize=auto;html=1;exitX=1;exitY=0.5;exitDx=0;exitDy=0;fontColor=#000000;" parent="1" source="GsUnz339vTUaddn1H5S7-51" target="GsUnz339vTUaddn1H5S7-61" edge="1"><mxGeometry relative="1" as="geometry"><mxPoint x="1280" y="470" as="targetPoint"/></mxGeometry></mxCell><mxCell id="GsUnz339vTUaddn1H5S7-51" value="laod all stds temp dele" style="whiteSpace=wrap;html=1;rounded=1;strokeColor=#82b366;fillColor=#d5e8d4;fontColor=#000000;" parent="1" vertex="1"><mxGeometry x="1120" y="380" width="120" height="60" as="geometry"/></mxCell><mxCell id="GsUnz339vTUaddn1H5S7-64" style="edgeStyle=orthogonalEdgeStyle;rounded=0;orthogonalLoop=1;jettySize=auto;html=1;exitX=0.75;exitY=1;exitDx=0;exitDy=0;entryX=0.358;entryY=1.02;entryDx=0;entryDy=0;entryPerimeter=0;fontColor=#000000;" parent="1" source="GsUnz339vTUaddn1H5S7-53" target="GsUnz339vTUaddn1H5S7-51" edge="1"><mxGeometry relative="1" as="geometry"><Array as="points"><mxPoint x="1480" y="380"/><mxPoint x="1480" y="570"/><mxPoint x="1163" y="570"/></Array></mxGeometry></mxCell><mxCell id="GsUnz339vTUaddn1H5S7-65" style="edgeStyle=orthogonalEdgeStyle;rounded=0;orthogonalLoop=1;jettySize=auto;html=1;exitX=0.5;exitY=1;exitDx=0;exitDy=0;entryX=0.369;entryY=1.031;entryDx=0;entryDy=0;entryPerimeter=0;fontColor=#000000;" parent="1" source="GsUnz339vTUaddn1H5S7-53" target="GsUnz339vTUaddn1H5S7-12" edge="1"><mxGeometry relative="1" as="geometry"><Array as="points"><mxPoint x="1550" y="380"/><mxPoint x="1550" y="590"/><mxPoint x="440" y="590"/><mxPoint x="440" y="142"/></Array></mxGeometry></mxCell><mxCell id="GsUnz339vTUaddn1H5S7-53" value="restore std btn" style="whiteSpace=wrap;html=1;rounded=1;strokeColor=#6c8ebf;fillColor=#dae8fc;fontColor=#000000;" parent="1" vertex="1"><mxGeometry x="1320" y="320" width="120" height="60" as="geometry"/></mxCell><mxCell id="GsUnz339vTUaddn1H5S7-63" style="edgeStyle=orthogonalEdgeStyle;rounded=0;orthogonalLoop=1;jettySize=auto;html=1;exitX=1;exitY=0.75;exitDx=0;exitDy=0;entryX=0.5;entryY=1;entryDx=0;entryDy=0;fontColor=#000000;" parent="1" source="GsUnz339vTUaddn1H5S7-61" target="GsUnz339vTUaddn1H5S7-51" edge="1"><mxGeometry relative="1" as="geometry"><Array as="points"><mxPoint x="1460" y="485"/><mxPoint x="1460" y="540"/><mxPoint x="1250" y="540"/><mxPoint x="1250" y="460"/><mxPoint x="1180" y="460"/></Array></mxGeometry></mxCell><mxCell id="GsUnz339vTUaddn1H5S7-61" value="permenant del std btn" style="whiteSpace=wrap;html=1;rounded=1;strokeColor=#6c8ebf;fillColor=#dae8fc;fontColor=#000000;" parent="1" vertex="1"><mxGeometry x="1320" y="440" width="120" height="60" as="geometry"/></mxCell></root></mxGraphModel></diagram></mxfile>